<svg width="580.4px" height="137.6px" xmlns="http://www.w3.org/2000/svg" viewBox="-40.19999999999999 6.200000000000003 580.4 137.6" style="background: rgb(255, 255, 255);" preserveAspectRatio="xMidYMid"><defs><linearGradient id="editing-glowing-gradient" x1="0.6710100716628343" x2="0.32898992833716567" y1="0.030153689607045786" y2="0.9698463103929542"><stop offset="0" stop-color="#46ff1a"></stop><stop offset="1" stop-color="#00ffff"></stop></linearGradient><filter id="editing-glowing" x="-100%" y="-100%" width="300%" height="300%"><feGaussianBlur in="SourceGraphic" result="blur" stdDeviation="4.5"></feGaussianBlur><feMerge><feMergeNode in="blur"></feMergeNode><feMergeNode in="SourceGraphic"></feMergeNode></feMerge></filter></defs><g filter="url(#editing-glowing)"><g transform="translate(45.13498878479004, 98.61499977111816)"><path d="M48.58 0L36.22 0L17.73-21.38L17.73 0L4.74 0L4.74-44.03L17.09-44.03L35.58-22.34L35.58-44.03L48.58-44.03L48.58 0ZM70.34-37.76L57.60-37.76L57.60-46.40L70.34-46.40L70.34-37.76ZM70.34 0L57.60 0L57.60-33.79L70.34-33.79L70.34 0ZM95.94-34.56L95.94-34.56Q104.26-34.56 109.41-31.01L109.41-31.01L109.41-31.01Q114.56-27.46 114.56-20.16L114.56-20.16L102.21-20.16L102.21-20.16Q102.21-25.92 95.94-25.92L95.94-25.92L95.94-25.92Q89.66-25.92 89.66-18.69L89.66-18.69L89.66-15.04L89.66-15.04Q89.66-7.87 96.19-7.87L96.19-7.87L96.19-7.87Q102.72-7.87 102.72-13.76L102.72-13.76L114.56-13.76L114.56-13.76Q114.56-6.40 109.41-2.82L109.41-2.82L109.41-2.82Q104.26 0.77 95.94 0.77L95.94 0.77L95.94 0.77Q87.04 0.77 81.98-3.71L81.98-3.71L81.98-3.71Q76.93-8.19 76.93-16.90L76.93-16.90L76.93-16.90Q76.93-25.60 81.98-30.08L81.98-30.08L81.98-30.08Q87.04-34.56 95.94-34.56L95.94-34.56ZM133.89-20.86L144.70-33.79L159.55-33.79L147.07-20.16L159.87 0L145.41 0L138.30-11.58L133.89-7.30L133.89 0L121.15 0L121.15-46.46L133.89-46.46L133.89-20.86ZM230.53 0L215.55 0L213.70-6.21L198.27-6.21L196.42 0L181.95 0L198.02-44.03L214.46-44.03L230.53 0ZM205.89-31.74L201.22-16.06L210.75-16.06L206.14-31.74L205.89-31.74ZM248.13 0L235.39 0L235.39-46.40L248.13-46.40L248.13 0ZM291.20 0L280.83 0L279.74-4.80L279.74-4.80Q276.03 0.77 268.99 0.77L268.99 0.77L268.99 0.77Q262.14 0.77 258.43-3.71L258.43-3.71L258.43-3.71Q254.72-8.19 254.72-16.96L254.72-16.96L254.72-16.96Q254.72-25.66 258.43-30.11L258.43-30.11L258.43-30.11Q262.14-34.56 268.99-34.56L268.99-34.56L268.99-34.56Q274.82-34.56 278.46-30.66L278.46-30.66L278.46-46.40L291.20-46.40L291.20 0ZM272.96-25.15L272.96-25.15Q267.46-25.15 267.46-18.56L267.46-18.56L267.46-15.17L267.46-15.17Q267.46-8.64 272.96-8.64L272.96-8.64L272.96-8.64Q275.78-8.64 277.18-10.62L277.18-10.62L277.18-10.62Q278.59-12.61 278.59-15.81L278.59-15.81L278.59-17.92L278.59-17.92Q278.59-21.12 277.18-23.14L277.18-23.14L277.18-23.14Q275.78-25.15 272.96-25.15L272.96-25.15ZM319.49-34.62L319.49-34.62Q320.96-34.62 322.11-34.27L322.11-34.27L322.11-34.27Q323.26-33.92 323.26-33.86L323.26-33.86L323.26-23.17L319.17-23.17L319.17-23.17Q315.20-23.17 313.44-21.12L313.44-21.12L313.44-21.12Q311.68-19.07 311.68-15.04L311.68-15.04L311.68 0L298.94 0L298.94-33.79L309.38-33.79L310.21-28.67L310.21-28.67Q311.36-31.62 313.86-33.12L313.86-33.12L313.86-33.12Q316.35-34.62 319.49-34.62L319.49-34.62ZM344.83-34.56L344.83-34.56Q354.11-34.56 359.01-30.21L359.01-30.21L359.01-30.21Q363.90-25.86 363.90-16.90L363.90-16.90L363.90-14.72L338.56-14.72L338.56-14.72Q338.56-11.07 340.19-9.22L340.19-9.22L340.19-9.22Q341.82-7.36 345.34-7.36L345.34-7.36L345.34-7.36Q348.54-7.36 350.05-8.70L350.05-8.70L350.05-8.70Q351.55-10.05 351.55-12.29L351.55-12.29L363.90-12.29L363.90-12.29Q363.90-6.14 359.23-2.69L359.23-2.69L359.23-2.69Q354.56 0.77 345.60 0.77L345.60 0.77L345.60 0.77Q336.19 0.77 331.01-3.62L331.01-3.62L331.01-3.62Q325.82-8 325.82-16.90L325.82-16.90L325.82-16.90Q325.82-25.60 330.88-30.08L330.88-30.08L330.88-30.08Q335.94-34.56 344.83-34.56L344.83-34.56ZM345.34-26.43L345.34-26.43Q339.33-26.43 338.62-20.74L338.62-20.74L351.04-20.74L351.04-20.74Q351.04-23.36 349.54-24.90L349.54-24.90L349.54-24.90Q348.03-26.43 345.34-26.43L345.34-26.43ZM404.99 0L394.62 0L393.54-4.80L393.54-4.80Q389.82 0.77 382.78 0.77L382.78 0.77L382.78 0.77Q375.94 0.77 372.22-3.71L372.22-3.71L372.22-3.71Q368.51-8.19 368.51-16.96L368.51-16.96L368.51-16.96Q368.51-25.66 372.22-30.11L372.22-30.11L372.22-30.11Q375.94-34.56 382.78-34.56L382.78-34.56L382.78-34.56Q388.61-34.56 392.26-30.66L392.26-30.66L392.26-46.40L404.99-46.40L404.99 0ZM386.75-25.15L386.75-25.15Q381.25-25.15 381.25-18.56L381.25-18.56L381.25-15.17L381.25-15.17Q381.25-8.64 386.75-8.64L386.75-8.64L386.75-8.64Q389.57-8.64 390.98-10.62L390.98-10.62L390.98-10.62Q392.38-12.61 392.38-15.81L392.38-15.81L392.38-17.92L392.38-17.92Q392.38-21.12 390.98-23.14L390.98-23.14L390.98-23.14Q389.57-25.15 386.75-25.15L386.75-25.15Z" fill="url(#editing-glowing-gradient)"></path></g></g><style>text {
  font-size: 64px;
  font-family: Arial Black;
  dominant-baseline: central;
  text-anchor: middle;
}</style></svg>